<?xml version="1.0" encoding="UTF-8"?>
<svg version="1.1" xmlns="http://www.w3.org/2000/svg" width="864" height="864">
<path d="M0 0 C1.27958588 0.00182281 2.55917175 0.00364563 3.87753296 0.00552368 C22.60471557 0.0504379 40.96044923 0.47615252 59.5 3.3125 C61.23080811 3.56193359 61.23080811 3.56193359 62.99658203 3.81640625 C105.89417076 10.09835823 147.24214621 23.04339936 186.5 41.3125 C187.88131104 41.94937744 187.88131104 41.94937744 189.29052734 42.59912109 C225.08451445 59.25937209 258.80700143 82.36373423 287.91796875 108.9765625 C289.33059541 110.25455152 290.74944736 111.52621969 292.19604492 112.765625 C297.70211314 117.49011002 302.87961878 122.50593706 308.00854492 127.63574219 C309.42668284 129.05169947 310.85296665 130.45948289 312.27929688 131.8671875 C317.66085669 137.23752794 322.63884935 142.75510048 327.38110352 148.6965332 C329.39376261 151.18134047 331.47981573 153.56300689 333.625 155.93359375 C337.49255856 160.24351388 341.03790148 164.73523602 344.5 169.375 C345.13518555 170.22570068 345.77037109 171.07640137 346.42480469 171.95288086 C358.54305086 188.35695664 369.72506092 205.40956391 379.5 223.3125 C379.97888672 224.18664551 380.45777344 225.06079102 380.95117188 225.96142578 C404.63571995 269.50372727 420.48926859 316.61903835 428.25 365.5625 C428.44867676 366.80322266 428.64735352 368.04394531 428.85205078 369.32226562 C432.01053302 390.1406421 432.87473534 410.77132686 432.8125 431.8125 C432.80976578 433.73187881 432.80976578 433.73187881 432.80697632 435.69003296 C432.7620621 454.41721557 432.33634748 472.77294923 429.5 491.3125 C429.25056641 493.04330811 429.25056641 493.04330811 428.99609375 494.80908203 C422.71414177 537.70667076 409.76910064 579.05464621 391.5 618.3125 C390.86312256 619.69381104 390.86312256 619.69381104 390.21337891 621.10302734 C373.55312791 656.89701445 350.44876577 690.61950143 323.8359375 719.73046875 C322.55794848 721.14309541 321.28628031 722.56194736 320.046875 724.00854492 C315.32238998 729.51461314 310.30656294 734.69211878 305.17675781 739.82104492 C303.76080053 741.23918284 302.35301711 742.66546665 300.9453125 744.09179688 C295.57497206 749.47335669 290.05739952 754.45134935 284.1159668 759.19360352 C281.63115953 761.20626261 279.24949311 763.29231573 276.87890625 765.4375 C272.56898612 769.30505856 268.07726398 772.85040148 263.4375 776.3125 C262.58679932 776.94768555 261.73609863 777.58287109 260.85961914 778.23730469 C244.45554336 790.35555086 227.40293609 801.53756092 209.5 811.3125 C208.62585449 811.79138672 207.75170898 812.27027344 206.85107422 812.76367188 C163.30877273 836.44821995 116.19346165 852.30176859 67.25 860.0625 C66.00927734 860.26117676 64.76855469 860.45985352 63.49023438 860.66455078 C42.6718579 863.82303302 22.04117314 864.68723534 1 864.625 C-0.27958588 864.62317719 -1.55917175 864.62135437 -2.87753296 864.61947632 C-21.60471557 864.5745621 -39.96044923 864.14884748 -58.5 861.3125 C-60.23080811 861.06306641 -60.23080811 861.06306641 -61.99658203 860.80859375 C-104.89417076 854.52664177 -146.24214621 841.58160064 -185.5 823.3125 C-186.88131104 822.67562256 -186.88131104 822.67562256 -188.29052734 822.02587891 C-224.08451445 805.36562791 -257.80700143 782.26126577 -286.91796875 755.6484375 C-288.33059541 754.37044848 -289.74944736 753.09878031 -291.19604492 751.859375 C-296.70211314 747.13488998 -301.87961878 742.11906294 -307.00854492 736.98925781 C-308.42668284 735.57330053 -309.85296665 734.16551711 -311.27929688 732.7578125 C-316.66085669 727.38747206 -321.63884935 721.86989952 -326.38110352 715.9284668 C-328.39376261 713.44365953 -330.47981573 711.06199311 -332.625 708.69140625 C-336.49255856 704.38148612 -340.03790148 699.88976398 -343.5 695.25 C-344.13518555 694.39929932 -344.77037109 693.54859863 -345.42480469 692.67211914 C-357.54305086 676.26804336 -368.72506092 659.21543609 -378.5 641.3125 C-378.97888672 640.43835449 -379.45777344 639.56420898 -379.95117188 638.66357422 C-403.63571995 595.12127273 -419.48926859 548.00596165 -427.25 499.0625 C-427.44867676 497.82177734 -427.64735352 496.58105469 -427.85205078 495.30273438 C-431.01053302 474.4843579 -431.87473534 453.85367314 -431.8125 432.8125 C-431.81067719 431.53291412 -431.80885437 430.25332825 -431.80697632 428.93496704 C-431.7620621 410.20778443 -431.33634748 391.85205077 -428.5 373.3125 C-428.33371094 372.15862793 -428.16742188 371.00475586 -427.99609375 369.81591797 C-421.71414177 326.91832924 -408.76910064 285.57035379 -390.5 246.3125 C-390.07541504 245.39162598 -389.65083008 244.47075195 -389.21337891 243.52197266 C-372.55312791 207.72798555 -349.44876577 174.00549857 -322.8359375 144.89453125 C-321.55794848 143.48190459 -320.28628031 142.06305264 -319.046875 140.61645508 C-314.32238998 135.11038686 -309.30656294 129.93288122 -304.17675781 124.80395508 C-302.76080053 123.38581716 -301.35301711 121.95953335 -299.9453125 120.53320312 C-294.57497206 115.15164331 -289.05739952 110.17365065 -283.1159668 105.43139648 C-280.63115953 103.41873739 -278.24949311 101.33268427 -275.87890625 99.1875 C-271.56898612 95.31994144 -267.07726398 91.77459852 -262.4375 88.3125 C-261.58679932 87.67731445 -260.73609863 87.04212891 -259.85961914 86.38769531 C-243.45554336 74.26944914 -226.40293609 63.08743908 -208.5 53.3125 C-207.62585449 52.83361328 -206.75170898 52.35472656 -205.85107422 51.86132812 C-162.30877273 28.17678005 -115.19346165 12.32323141 -66.25 4.5625 C-65.00927734 4.36382324 -63.76855469 4.16514648 -62.49023438 3.96044922 C-41.6718579 0.80196698 -21.04117314 -0.06223534 0 0 Z " fill="#0A1420" transform="translate(431.5,-0.3125)"/>
<path d="M0 0 C1.84921267 0.02777071 3.69850157 0.05033352 5.54779053 0.07244873 C58.07653015 0.83282595 111.14132891 11.82780942 159.99554443 31.02996826 C160.92044678 31.38897217 161.84534912 31.74797607 162.79827881 32.11785889 C167.24132028 33.8448682 171.67872624 35.58636687 176.10101318 37.36590576 C176.78316895 37.63967041 177.46532471 37.91343506 178.16815186 38.19549561 C179.99554443 39.02996826 179.99554443 39.02996826 182.99554443 41.02996826 C183.37586117 43.70551872 183.37586117 43.70551872 183.38322449 47.17837524 C183.39808144 49.14910004 183.39808144 49.14910004 183.41323853 51.15963745 C183.40899919 52.62536713 183.4044412 54.09109592 183.39959717 55.55682373 C183.40529821 57.09475197 183.41226143 58.63267597 183.4203949 60.17059326 C183.43842104 64.36703343 183.43713427 68.56326539 183.43145251 72.75973272 C183.42835856 76.28562097 183.434459 79.81146935 183.44049126 83.33735192 C183.45458029 91.6973266 183.45295323 100.05719934 183.44158936 108.41717529 C183.4302445 116.94967655 183.44393966 125.48185847 183.47098583 134.01431739 C183.4934622 141.38982841 183.49970589 148.76524169 183.49390942 156.14078438 C183.49059627 160.52162583 183.49255852 164.90226551 183.51016045 169.28307724 C183.62497485 200.91983183 181.66711195 232.21337042 173.99554443 263.02996826 C173.798479 263.82950928 173.60141357 264.62905029 173.39837646 265.45281982 C168.56097714 284.71380533 161.62758082 303.16001349 152.99554443 321.02996826 C152.42561768 322.21091064 152.42561768 322.21091064 151.84417725 323.41571045 C140.37240855 346.85464174 125.12238811 368.28105413 106.99554443 387.02996826 C105.85303223 388.21332764 105.85303223 388.21332764 104.68743896 389.42059326 C94.33066393 400.09109038 84.01603496 410.26154471 71.99554443 419.02996826 C71.0893335 419.74281982 70.18312256 420.45567139 69.24945068 421.19012451 C47.75182932 437.99181156 23.12887445 450.99262001 -1.75445557 462.02996826 C-2.47334961 462.36238525 -3.19224365 462.69480225 -3.93292236 463.03729248 C-10.39411613 465.76417559 -15.4560426 465.36273009 -21.9854126 462.91033936 C-25.43068351 461.42610319 -28.81178902 459.84447488 -32.19195557 458.21746826 C-33.43664787 457.62676405 -34.681441 457.03627225 -35.92633057 456.44598389 C-46.27047379 451.50790068 -56.45653259 446.30112027 -66.37554932 440.5524292 C-68.17284866 439.51157122 -69.97798049 438.48415257 -71.78961182 437.46844482 C-90.74212303 426.7598806 -90.74212303 426.7598806 -94.10601807 415.91668701 C-94.40250244 414.63406982 -94.69898682 413.35145264 -95.00445557 412.02996826 C-95.40784172 410.55724086 -95.81150112 409.08458828 -96.21539307 407.61199951 C-102.64183586 382.18882437 -100.17319963 357.65094417 -87.00445557 335.02996826 C-76.41378693 317.58394916 -62.04343228 302.5160071 -46.00445557 290.02996826 C-45.42985596 289.57895752 -44.85525635 289.12794678 -44.26324463 288.66326904 C-28.80130362 276.57774448 -12.22713337 266.3933736 4.99554443 257.02996826 C5.89531006 256.53835205 6.79507568 256.04673584 7.72210693 255.54022217 C19.32687115 249.20774117 30.98726028 243.01069684 42.762146 237.00213623 C94.4973481 211.67138331 94.4973481 211.67138331 127.99554443 167.02996826 C128.42866943 165.93684326 128.86179443 164.84371826 129.30804443 163.71746826 C131.42450973 152.36551804 130.30062849 143.77553144 123.99554443 134.02996826 C122.42204714 131.86691772 120.83578894 129.97846244 118.99554443 128.02996826 C128.05737104 132.18495426 132.25913913 140.14033282 135.99554443 149.02996826 C140.03990461 161.47787921 135.30510449 175.74877586 129.99554443 187.02996826 C113.98000271 214.25961164 86.61228995 232.36248909 60.27337646 248.56951904 C44.01013507 258.58605952 28.50035216 269.59392389 13.99554443 282.02996826 C13.41723877 282.52174561 12.83893311 283.01352295 12.24310303 283.52020264 C-6.90275176 299.95130574 -22.67281358 321.43240209 -26.00445557 347.02996826 C-27.51207505 370.7070087 -19.94788509 389.59723716 -4.47076416 407.4118042 C2.67693008 415.29973584 11.29804099 423.46974893 20.99554443 428.02996826 C24.69507269 427.61844728 27.32738016 426.47691542 30.47991943 424.54559326 C31.3244165 424.02900146 32.16891357 423.51240967 33.03900146 422.98016357 C33.93216064 422.41909912 34.82531982 421.85803467 35.74554443 421.27996826 C36.6735083 420.70085693 37.60147217 420.12174561 38.55755615 419.52508545 C47.46282799 413.88096349 55.77646826 407.61916746 63.99554443 401.02996826 C64.97523193 400.26297607 65.95491943 399.49598389 66.96429443 398.70574951 C116.8721741 358.9996276 147.70904034 302.92361813 159.30804443 240.59246826 C159.45507812 239.81580811 159.60211182 239.03914795 159.75360107 238.23895264 C163.34091501 217.69209317 163.33432643 197.07848362 163.4002614 176.29922199 C163.41609195 171.95241382 163.44281639 167.60567154 163.46829224 163.25891113 C163.51473265 155.06080595 163.55164266 146.86268788 163.58496511 138.66452003 C163.62343491 129.3171554 163.67277825 119.96985753 163.72294927 110.62254953 C163.82575122 91.42507156 163.91517665 72.22755263 163.99554443 53.02996826 C163.37561709 52.82421991 162.75568975 52.61847157 162.11697674 52.40648842 C161.30481103 52.13646193 160.49264532 51.86643543 159.65586853 51.58822632 C158.85031619 51.32060297 158.04476385 51.05297962 157.21480083 50.77724648 C154.90924683 50.00090974 152.6302255 49.17448826 150.35882568 48.30340576 C113.43122348 34.36533493 76.16553519 26.13369493 36.99554443 22.02996826 C35.47163086 21.85425293 35.47163086 21.85425293 33.91693115 21.67498779 C-4.88952986 17.22048527 -44.64964827 19.7070443 -83.25445557 24.68182373 C-85.80483639 25.00469687 -88.35644043 25.30606921 -90.91070557 25.59637451 C-91.64394043 25.68145264 -92.37717529 25.76653076 -93.13262939 25.85418701 C-95.02062835 26.07264427 -96.90900864 26.28779933 -98.79742432 26.50262451 C-102.0464933 27.03688068 -104.88621334 27.98537653 -108.00445557 29.02996826 C-110.99000741 29.68996321 -113.99786851 30.22497886 -117.00445557 30.77996826 C-140.51970681 35.34097571 -163.24767937 42.78074756 -185.33648682 51.99871826 C-188.00445557 53.02996826 -188.00445557 53.02996826 -190.00445557 53.02996826 C-189.94363736 73.51151111 -189.86594076 93.99292576 -189.76874065 114.47432899 C-189.72398158 123.98651641 -189.68452245 133.49866804 -189.65802002 143.01092529 C-189.63487738 151.31226865 -189.60130194 159.61349684 -189.55575401 167.91474855 C-189.53203844 172.30070218 -189.51316918 176.68654332 -189.50684166 181.07255936 C-189.47719555 199.25354198 -189.29429584 217.08015039 -186.00445557 235.02996826 C-185.74274085 236.52543869 -185.48143699 238.02098109 -185.22058105 239.51660156 C-184.55352351 243.24135 -183.82252688 246.94725758 -183.06695557 250.65496826 C-182.70827393 252.50155029 -182.70827393 252.50155029 -182.34234619 254.38543701 C-180.77728943 262.1735559 -178.65779259 269.54883576 -176.00445557 277.02996826 C-175.51997827 278.51997638 -175.03802458 280.01080852 -174.55914307 281.50262451 C-172.64291742 287.24483645 -170.37931769 292.84956929 -168.12945557 298.46746826 C-167.70793213 299.53545654 -167.28640869 300.60344482 -166.85211182 301.70379639 C-164.20871473 308.32037289 -161.3081153 314.71664096 -158.00445557 321.02996826 C-157.34445557 321.02996826 -156.68445557 321.02996826 -156.00445557 321.02996826 C-154.84394914 319.68061302 -153.75289086 318.27143678 -152.69195557 316.84246826 C-117.09389517 271.54744517 -56.00877698 250.62179489 -3.91607666 230.89129639 C28.9706733 218.48408636 28.9706733 218.48408636 60.99554443 204.02996826 C61.92415283 203.57525146 62.85276123 203.12053467 63.80950928 202.65203857 C75.26138092 196.99048363 85.91875285 190.89546391 95.99554443 183.02996826 C97.04741943 182.25266357 97.04741943 182.25266357 98.12054443 181.45965576 C106.50807877 174.90689456 113.90805753 164.39525211 115.30023193 153.68621826 C115.4588839 148.53884321 114.42791699 143.95374892 112.99554443 139.02996826 C116.56085851 142.10910314 117.82595919 145.34953269 118.29632568 150.01043701 C118.35158703 165.13362562 113.46733438 175.57510467 102.99554443 186.52996826 C92.1413967 196.91155446 79.8536571 204.65515607 66.61395264 211.63812256 C64.62743467 212.69407957 62.65115621 213.76932734 60.67987061 214.85345459 C51.44027826 219.91377721 42.01064784 224.25051946 32.30804443 228.34246826 C30.76600069 228.99843431 29.22400941 229.65452373 27.68206787 230.31072998 C17.31342936 234.70677002 6.874407 238.89066276 -3.6260376 242.96234131 C-34.6675475 255.02708486 -64.83194959 268.12794548 -93.00445557 286.02996826 C-94.02281494 286.67707764 -95.04117432 287.32418701 -96.09039307 287.99090576 C-103.12600627 292.56676731 -109.63879279 297.56431082 -116.00445557 303.02996826 C-117.27095947 304.11084717 -117.27095947 304.11084717 -118.56304932 305.21356201 C-135.8161627 320.31340072 -147.75926002 337.29438162 -155.00445557 359.02996826 C-155.66445557 359.02996826 -156.32445557 359.02996826 -157.00445557 359.02996826 C-158.19024658 357.53973389 -158.19024658 357.53973389 -159.50836182 355.43621826 C-159.99707764 354.66181396 -160.48579346 353.88740967 -160.98931885 353.08953857 C-161.77024902 351.82255127 -161.77024902 351.82255127 -162.56695557 350.52996826 C-163.37495605 349.22817627 -163.37495605 349.22817627 -164.19927979 347.90008545 C-165.81300464 345.28382984 -167.41150841 342.65891652 -169.00445557 340.02996826 C-169.63891602 338.99066162 -169.63891602 338.99066162 -170.28619385 337.93035889 C-180.83521451 320.5011559 -188.16768086 301.62523769 -194.27154541 282.24798584 C-194.96200526 280.1584363 -195.73207144 278.12345179 -196.53961182 276.07684326 C-198.32389559 271.3969551 -199.42226151 266.60031749 -200.50445557 261.71746826 C-200.7202124 260.74672363 -200.93596924 259.775979 -201.15826416 258.77581787 C-207.93096376 227.68389347 -209.47191493 196.48767024 -209.30863738 164.78003049 C-209.28947145 160.40664782 -209.28808958 156.033254 -209.28456116 151.65983582 C-209.27535485 143.43367963 -209.25090145 135.20764765 -209.22051269 126.98154539 C-209.18660588 117.59287288 -209.17039293 108.20419343 -209.15542638 98.81547463 C-209.12433704 79.5535696 -209.07180715 60.29177902 -209.00445557 41.02996826 C-205.32524827 39.4211359 -201.64470725 37.81537688 -197.96392822 36.21014404 C-196.92853409 35.75734573 -195.89313995 35.30454742 -194.82637024 34.83802795 C-187.42098696 31.61091729 -180.00352594 28.58221374 -172.37945557 25.90496826 C-171.22252197 25.49665771 -170.06558838 25.08834717 -168.87359619 24.66766357 C-114.09491007 5.71488714 -57.67270293 -0.88015375 0 0 Z " fill="#386E99" transform="translate(445.00445556640625,118.97003173828125)"/>
<path d="M0 0 C2.17041428 -0.00956867 4.33982291 -0.04055875 6.51000977 -0.07226562 C46.37287904 -0.37539668 82.54226881 19.92129669 110.40258789 47.24023438 C112.50802289 49.51552623 114.46504808 51.81830961 116.40258789 54.24023438 C106.09447563 76.92054963 74.05241869 91.30501326 52.40258789 100.24023438 C51.45383789 100.64113281 50.50508789 101.04203125 49.52758789 101.45507812 C19.27225545 113.98267671 -16.16222343 111.93850863 -46.47241211 100.49023438 C-63.38663449 93.36407839 -78.71925299 84.30275463 -92.59741211 72.24023438 C-93.9296582 71.09167969 -93.9296582 71.09167969 -95.28881836 69.91992188 C-100.12844839 65.66450948 -104.80388257 61.46915347 -108.59741211 56.24023438 C-108.20756859 50.82032654 -103.2195262 47.33295181 -99.59741211 43.74023438 C-98.78868652 42.937229 -97.97996094 42.13422363 -97.14672852 41.30688477 C-89.5706987 33.94969184 -81.54262205 27.82486008 -72.59741211 22.24023438 C-71.94595215 21.8298291 -71.29449219 21.41942383 -70.62329102 20.99658203 C-54.46912217 10.97783225 -37.23580808 4.70193016 -18.59741211 1.24023438 C-17.84298828 1.06516357 -17.08856445 0.89009277 -16.3112793 0.7097168 C-10.93799425 -0.21982865 -5.44106232 0.01443412 0 0 Z " fill="#3E90C3" transform="translate(428.597412109375,209.759765625)"/>
<path d="M0 0 C10.19387964 7.77556223 18.97924082 18.35038731 21.1640625 31.36328125 C22.52725984 47.46444231 19.54814077 61.01329078 9.37109375 73.80859375 C0.01757211 83.96172062 -12.854232 90.07297342 -26.546875 91.0078125 C-40.66243387 91.49688204 -53.96813605 86.20600621 -64.44140625 76.62109375 C-74.60623683 65.48936465 -79.48353058 51.37672177 -79.0078125 36.4453125 C-77.65114232 23.42407601 -70.79509353 11.08107948 -60.62890625 2.80859375 C-42.66379284 -10.79521399 -19.20178758 -12.64354158 0 0 Z " fill="#0C1A27" transform="translate(460.62890625,223.19140625)"/>
<path d="M0 0 C0.97324219 0.50015625 1.94648437 1.0003125 2.94921875 1.515625 C21.13625991 10.9593953 35.81707644 24.44270485 50 39 C45.91755253 39 43.59514052 36.93952041 40.3125 34.75 C29.69623741 27.89516973 18.39248843 22.43193182 7 17 C6.30100586 16.66452148 5.60201172 16.32904297 4.88183594 15.98339844 C-9.39455329 9.21527591 -24.63473507 5.3097721 -40.0625 2.1875 C-41.08448486 1.9805249 -42.10646973 1.7735498 -43.15942383 1.56030273 C-54.33726369 -0.59960042 -65.3075214 -1.18664483 -76.67773438 -1.18530273 C-78.73328607 -1.18748228 -80.788293 -1.20569563 -82.84375 -1.22460938 C-96.35919881 -1.28483658 -109.29488818 0.38433114 -122.3125 4.125 C-123.92125 4.58350342 -123.92125 4.58350342 -125.5625 5.05126953 C-135.14337709 7.8771704 -144.08219529 11.52763915 -153 16 C-154.07386963 16.52980469 -154.07386963 16.52980469 -155.16943359 17.0703125 C-178.16750867 28.49486443 -197.88300638 43.88300638 -216 62 C-224.69715851 61.57415043 -233.63135543 58.32650578 -242 56 C-241.81824219 54.38544922 -241.81824219 54.38544922 -241.6328125 52.73828125 C-241.55393799 52.03751465 -241.47506348 51.33674805 -241.39379883 50.61474609 C-241.21324736 49.06833341 -241.02282827 47.52304371 -240.82299805 45.97900391 C-240.35691948 42.35761468 -239.99840033 38.88100914 -239.94921875 35.22265625 C-239.80519891 31.69622771 -239.48768263 29.20637189 -238 26 C-234.28094144 23.11267978 -230.14277135 21.67628231 -225.76953125 20.07568359 C-222.42727298 18.77755331 -219.1677194 17.31828453 -215.90625 15.83203125 C-214.96100212 15.40161026 -214.96100212 15.40161026 -213.99665833 14.9624939 C-212.70465401 14.37338428 -211.41285131 13.78383229 -210.12124634 13.19384766 C-185.56106086 2 -185.56106086 2 -181 2 C-181 1.34 -181 0.68 -181 0 C-181.845625 -0.2475 -182.69125 -0.495 -183.5625 -0.75 C-187 -2 -187 -2 -190 -4.0625 C-194.59943215 -6.89691304 -199.73289436 -6.48657083 -204.98828125 -6.53125 C-208 -7 -208 -7 -209.41796875 -8.78125 C-210 -11 -210 -11 -210 -15 C-208.54480325 -15.34677029 -207.08553194 -15.676436 -205.625 -16 C-204.81289063 -16.185625 -204.00078125 -16.37125 -203.1640625 -16.5625 C-192.96404821 -17.97287235 -186.49476896 -15.96071533 -177.25 -11.4375 C-175.07450431 -10.38042894 -172.89237444 -9.33687758 -170.703125 -8.30859375 C-169.75083008 -7.84251709 -168.79853516 -7.37644043 -167.81738281 -6.89624023 C-162.86135286 -5.319673 -158.58250086 -7.01643129 -153.82421875 -8.671875 C-102.47898499 -26.07225107 -48.42487166 -26.88355865 0 0 Z " fill="#44A7DE" transform="translate(518,197)"/>
<path d="M0 0 C12.11908999 -0.1361293 22.07429712 3.73122885 31 12 C39.32595339 21.34925492 42.67313922 31.3491146 42.25390625 43.77734375 C41.32335639 55.58816896 36.28986682 64.62733469 27.765625 72.73046875 C16.16302662 82.25181007 4.48569253 83.27574519 -10 82 C-21.05113123 79.56399796 -29.41152438 71.93468226 -36 63 C-41.11879411 53.52126265 -42 46.93079823 -42 36 C-34.41 36 -26.82 36 -19 36 C-18.01 41.445 -18.01 41.445 -17 47 C-14.98149085 51.70985468 -12.89348034 54.99699578 -8.1875 57.33984375 C-2.43380792 59.07622582 4.40955666 59.16519278 9.9375 56.625 C14.84037474 53.2445338 17.29969084 47.22660962 18.52734375 41.5703125 C18.76737595 39.72239337 18.89663477 37.86057416 19 36 C17.989375 36.495 16.97875 36.99 15.9375 37.5 C12.13301636 39.09865171 9.15305479 39.61526738 5 39 C1.40325271 36.26812317 0.12749344 34.82851545 -0.56762695 30.3112793 C-0.56684281 28.89867837 -0.53902725 27.4859081 -0.48828125 26.07421875 C-0.48120651 25.32662796 -0.47413177 24.57903717 -0.46684265 23.80879211 C-0.43897645 21.43398598 -0.37626132 19.06158649 -0.3125 16.6875 C-0.28740668 15.07229982 -0.26459531 13.45706246 -0.24414062 11.84179688 C-0.18917647 7.89361181 -0.10296527 3.94721311 0 0 Z " fill="#3D91C4" transform="translate(432,223)"/>
<path d="M0 0 C1.19044922 -0.02900391 2.38089844 -0.05800781 3.60742188 -0.08789062 C11.00411517 -0.14075319 17.49288836 0.40065698 23.9375 4.3125 C30.79261616 11.26523333 30.18035602 18.79092439 30.25 27.9375 C30.27900391 29.18402344 30.30800781 30.43054688 30.33789062 31.71484375 C30.39728513 40.36816614 29.28566312 46.60027043 24.25 53.6875 C17.1330571 58.68859501 8.91449167 58.83273931 0.5 58.8125 C-0.56798828 58.84085938 -1.63597656 58.86921875 -2.73632812 58.8984375 C-11.33835438 58.9194565 -18.29411059 56.98667968 -24.5625 50.875 C-28.59873491 43.97976537 -28.42879043 37.26458055 -28.4375 29.5 C-28.46199219 28.36240234 -28.48648438 27.22480469 -28.51171875 26.05273438 C-28.53958461 18.00414471 -27.72904079 11.19720348 -22.02734375 5.15625 C-21.35832031 4.7128125 -20.68929687 4.269375 -20 3.8125 C-19.32839844 3.3484375 -18.65679688 2.884375 -17.96484375 2.40625 C-12.4628516 -0.75711304 -6.1534264 0.04886257 0 0 Z " fill="#ABADAD" transform="translate(647.0625,646.6875)"/>
<path d="M0 0 C1.84851563 -0.01063477 1.84851563 -0.01063477 3.734375 -0.02148438 C10.50150849 0.0257113 15.90316087 0.41090683 22 3.4375 C25.95854861 7.50022094 28.2591113 11.31568836 28.22705078 17.02246094 C28.22689972 17.92309265 28.22674866 18.82372437 28.22659302 19.75164795 C28.21627045 20.71532288 28.20594788 21.6789978 28.1953125 22.671875 C28.1924826 23.66503723 28.18965271 24.65819946 28.18673706 25.68145752 C28.17555143 28.85026144 28.15044962 32.01878165 28.125 35.1875 C28.11496812 37.3372355 28.10584263 39.48697543 28.09765625 41.63671875 C28.07561736 46.90375497 28.04109842 52.1705794 28 57.4375 C24.04 57.4375 20.08 57.4375 16 57.4375 C16 55.1275 16 52.8175 16 50.4375 C15.34 50.4375 14.68 50.4375 14 50.4375 C13.773125 51.035625 13.54625 51.63375 13.3125 52.25 C11.36667572 55.49304047 8.70431485 56.92638225 5.11621094 58.00244141 C1.19460086 58.80866074 -2.75891657 58.74850304 -6.75 58.8125 C-8.05324219 58.86857422 -8.05324219 58.86857422 -9.3828125 58.92578125 C-15.8176537 59.01273856 -20.10028746 57.69121032 -25 53.4375 C-28.9761369 48.6425151 -28.49145625 43.74504921 -28.34765625 37.76171875 C-27.91026805 33.57950121 -26.97965861 31.41715861 -24 28.4375 C-18.62323008 24.37749006 -15.02502306 23.31075317 -8.36328125 23.33984375 C-7.06455078 23.34306641 -5.76582031 23.34628906 -4.42773438 23.34960938 C-3.05598892 23.35796469 -1.68424413 23.36642963 -0.3125 23.375 C1.07096195 23.38001665 2.45442563 23.38457927 3.83789062 23.38867188 C7.22530395 23.40047471 10.61263033 23.41693981 14 23.4375 C13.77139942 21.97565942 13.51629608 20.51794581 13.25 19.0625 C13.11078125 18.25039063 12.9715625 17.43828125 12.828125 16.6015625 C12.18438216 14.30860458 12.18438216 14.30860458 10.15844727 13.16503906 C6.79867521 12.03257433 3.44085364 12.14966 -0.0625 12.1875 C-0.78244141 12.17976562 -1.50238281 12.17203125 -2.24414062 12.1640625 C-6.02934363 12.17812082 -7.77860465 12.2899031 -11 14.4375 C-11.33 15.4275 -11.66 16.4175 -12 17.4375 C-16.62 17.4375 -21.24 17.4375 -26 17.4375 C-26 8.9375 -26 8.9375 -22 4.4375 C-14.84389068 -0.24804777 -8.39026174 -0.13603458 0 0 Z " fill="#3D76A3" transform="translate(267,646.5625)"/>
<path d="M0 0 C4.62 0 9.24 0 14 0 C14 13.53 14 27.06 14 41 C21.31640435 40.0455347 21.31640435 40.0455347 26 35.4375 C26.845625 34.53902344 27.69125 33.64054688 28.5625 32.71484375 C32.63294549 28.18871443 32.63294549 28.18871443 36.625 23.59375 C37.69849686 22.34946955 38.83796959 21.16203041 40 20 C42.9093558 19.85482256 45.719946 19.81369204 48.625 19.875 C49.42679687 19.88402344 50.22859375 19.89304687 51.0546875 19.90234375 C53.03658523 19.92593777 55.01832981 19.96180935 57 20 C52.60930075 26.29140702 47.60155074 31.64411902 42.125 37 C41.34125 37.77472656 40.5575 38.54945313 39.75 39.34765625 C37.83786662 41.23647093 35.92119818 43.12041391 34 45 C35.28534057 47.77245849 36.67666604 49.98819164 38.6875 52.28515625 C39.48184448 53.1975708 39.48184448 53.1975708 40.29223633 54.12841797 C40.85579834 54.76666504 41.41936035 55.40491211 42 56.0625 C42.57580811 56.72137207 43.15161621 57.38024414 43.74487305 58.05908203 C48.17875274 63.11604527 52.69552819 68.09311306 57.26953125 73.0234375 C59 75 59 75 59 76 C44.3097588 77.51793537 44.3097588 77.51793537 39.25390625 74.1953125 C36.97006449 71.57203738 34.98928309 68.85290506 33 66 C31.21045179 63.75283204 29.3357497 61.59297393 27.4375 59.4375 C26.59058594 58.42558594 25.74367188 57.41367187 24.87109375 56.37109375 C21.57974007 53.22133814 21.57974007 53.22133814 14 53 C14 60.59 14 68.18 14 76 C9.38 76 4.76 76 0 76 C0 50.92 0 25.84 0 0 Z " fill="#4480AD" transform="translate(370,628)"/>
<path d="M0 0 C4.95 0 9.9 0 15 0 C17.69911693 6.96989086 20.38631718 13.94421626 23.06274414 20.92285156 C23.97422235 23.2945402 24.88890175 25.6650012 25.80688477 28.03417969 C27.12846959 31.44666214 28.43834668 34.86344455 29.74609375 38.28125 C30.15653427 39.33364868 30.56697479 40.38604736 30.98985291 41.47033691 C33.11049541 47.04871412 34.57284844 52.03858556 35 58 C37.57836307 56.71081846 37.63910316 55.8128823 38.61645508 53.14550781 C38.92049759 52.326651 39.2245401 51.50779419 39.53779602 50.66412354 C40.02375496 49.32217926 40.02375496 49.32217926 40.51953125 47.953125 C40.85997971 47.03094177 41.20042816 46.10875854 41.55119324 45.15863037 C42.64502264 42.19151126 43.72900179 39.22090545 44.8125 36.25 C45.53122636 34.29272087 46.25061976 32.33568655 46.97070312 30.37890625 C48.02022464 27.52662791 49.06965584 24.67432007 50.11746216 21.82141113 C57.63611684 1.36388316 57.63611684 1.36388316 59 0 C61.53049402 -0.07313567 64.03304837 -0.09247527 66.5625 -0.0625 C67.62887695 -0.05573242 67.62887695 -0.05573242 68.71679688 -0.04882812 C70.47790013 -0.03700864 72.23896036 -0.01907263 74 0 C70.12034205 11.60623413 65.64208427 22.91634297 60.97729492 34.22851562 C58.11336944 41.1953803 55.39091773 48.15604663 53 55.30078125 C51.87889867 58.32687899 50.44702694 61.11740015 49 64 C48.40107208 65.61192946 47.83388963 67.23634686 47.3125 68.875 C46.879375 70.23625 46.44625 71.5975 46 73 C40.06 73 34.12 73 28 73 C25 65 25 65 23.5625 61 C22.57581099 58.35526657 21.49681204 56.02832671 20.1875 53.5 C17.90110162 49.04799409 16.2210006 44.39119722 14.49731445 39.70263672 C11.7824669 32.3411097 8.8593769 25.0671843 5.9296875 17.7890625 C5.61741211 17.01079102 5.30513672 16.23251953 4.98339844 15.43066406 C4.28733053 13.71019432 3.58124578 11.99376144 2.86816406 10.28027344 C2.50174805 9.39114258 2.13533203 8.50201172 1.7578125 7.5859375 C1.42152832 6.77946777 1.08524414 5.97299805 0.73876953 5.14208984 C0 3 0 3 0 0 Z " fill="#B7B9BB" transform="translate(430,631)"/>
<path d="M0 0 C1.18980469 -0.01611328 2.37960937 -0.03222656 3.60546875 -0.04882812 C10.34282552 -0.05255042 16.6575344 0.15790318 22.75 3.3125 C26.16563684 6.81352776 27.72792551 9.0321793 27.8125 13.9375 C27.791875 15.05125 27.77125 16.165 27.75 17.3125 C23.46 17.3125 19.17 17.3125 14.75 17.3125 C14.09 15.9925 13.43 14.6725 12.75 13.3125 C10.02023085 12.40257695 8.39911026 12.18405407 5.58984375 12.1796875 C4.79642578 12.17839844 4.00300781 12.17710937 3.18554688 12.17578125 C2.36119141 12.17964844 1.53683594 12.18351563 0.6875 12.1875 C-0.14072266 12.18363281 -0.96894531 12.17976562 -1.82226562 12.17578125 C-2.61439453 12.17707031 -3.40652344 12.17835938 -4.22265625 12.1796875 C-4.94718994 12.18081543 -5.67172363 12.18194336 -6.41821289 12.18310547 C-8.34800455 12.20188639 -8.34800455 12.20188639 -10.25 13.3125 C-10.25 15.6225 -10.25 17.9325 -10.25 20.3125 C-7.90224963 21.48637519 -6.21080232 21.55859581 -3.59375 21.7421875 C-2.65273438 21.81566406 -1.71171875 21.88914062 -0.7421875 21.96484375 C1.22095569 22.11092621 3.18450023 22.25173115 5.1484375 22.38671875 C20.61381403 23.62311064 20.61381403 23.62311064 25.43969727 27.76147461 C30.45816493 33.65993678 30.28857113 38.83125742 29.75 46.3125 C28.12687605 51.09644426 25.93327328 53.52365115 21.75 56.3125 C15.56219482 59.30848154 9.10961521 58.6415714 2.375 58.625 C0.42207031 58.64916992 0.42207031 58.64916992 -1.5703125 58.67382812 C-9.95845406 58.67810779 -15.29810996 58.23346221 -22.125 53.1875 C-24.97248142 49.33502514 -25.13753286 46.00544723 -25.25 41.3125 C-23.14758397 41.17753749 -21.0427039 41.08052693 -18.9375 41 C-17.76574219 40.94199219 -16.59398437 40.88398437 -15.38671875 40.82421875 C-14.35160156 40.98535156 -13.31648437 41.14648438 -12.25 41.3125 C-11.85554687 42.13492188 -11.46109375 42.95734375 -11.0546875 43.8046875 C-9.52359345 46.53972181 -9.52359345 46.53972181 -6.90454102 46.75610352 C-3.81899858 46.8780955 -0.77392191 46.84545635 2.3125 46.75 C3.37919922 46.74419922 4.44589844 46.73839844 5.54492188 46.73242188 C11.20652365 47.00743064 11.20652365 47.00743064 15.75 44.3125 C15.91681109 41.22902174 15.91681109 41.22902174 15.75 38.3125 C9.20063 34.96681912 3.5615901 34.87856666 -3.69140625 34.87304688 C-9.87992444 34.73562955 -14.9905824 33.72561208 -20.25 30.3125 C-25.13773223 24.91783579 -24.95495247 19.8895041 -24.76953125 12.8984375 C-24.15116803 8.63033647 -23.08105608 6.49501257 -20.05078125 3.51171875 C-13.79846843 -0.65196897 -7.23412297 -0.01934257 0 0 Z " fill="#ACADAE" transform="translate(558.25,646.6875)"/>
<path d="M0 0 C0.78181641 -0.020625 1.56363281 -0.04125 2.36914062 -0.0625 C8.35196591 -0.10248547 13.27138531 0.68041912 17.9296875 4.78515625 C20.86563088 8.74361785 22.31439492 10.80645772 22.30102539 15.69970703 C22.30094986 16.62051056 22.30087433 17.54131409 22.30079651 18.49002075 C22.29563522 19.48589203 22.29047394 20.48176331 22.28515625 21.5078125 C22.2837413 22.52600067 22.28232635 23.54418884 22.28086853 24.5932312 C22.275259 27.85385035 22.26270488 31.11440151 22.25 34.375 C22.24498623 36.58203026 22.24042311 38.78906159 22.23632812 40.99609375 C22.22528647 46.41408881 22.20801543 51.83203286 22.1875 57.25 C17.8975 57.25 13.6075 57.25 9.1875 57.25 C9.18339111 56.0947583 9.17928223 54.9395166 9.17504883 53.74926758 C9.15323676 49.45308131 9.09892598 45.15780821 9.03491211 40.86206055 C9.01175012 39.00472787 8.9973406 37.14726418 8.99194336 35.28979492 C8.98264038 32.615545 8.94162303 29.94335032 8.89453125 27.26953125 C8.8984639 26.44226028 8.90239655 25.61498932 8.90644836 24.76264954 C8.79896894 20.4924296 8.54967481 18.72617006 5.88378906 15.22119141 C2.32612317 12.62026833 -0.64092699 12.61457358 -4.875 12.8125 C-5.93557617 12.82120117 -5.93557617 12.82120117 -7.01757812 12.83007812 C-10.692919 12.91635373 -13.81665266 13.00131842 -16.8125 15.25 C-19.5067977 19.0875554 -19.16238079 23.44943804 -19.2265625 27.953125 C-19.24592865 28.79091492 -19.2652948 29.62870483 -19.2852478 30.49188232 C-19.34490724 33.16115213 -19.39137413 35.83046539 -19.4375 38.5 C-19.47569236 40.31251854 -19.51474482 42.12501918 -19.5546875 43.9375 C-19.65059752 48.37485415 -19.7346788 52.81229325 -19.8125 57.25 C-24.1025 57.25 -28.3925 57.25 -32.8125 57.25 C-32.8125 38.77 -32.8125 20.29 -32.8125 1.25 C-28.8525 1.25 -24.8925 1.25 -20.8125 1.25 C-20.1525 2.9 -19.4925 4.55 -18.8125 6.25 C-17.45125 5.0434375 -17.45125 5.0434375 -16.0625 3.8125 C-11.32785489 -0.38411725 -6.02758491 0.03917196 0 0 Z " fill="#AEB0B0" transform="translate(719.8125,646.75)"/>
<path d="M0 0 C1.64162109 -0.02416992 1.64162109 -0.02416992 3.31640625 -0.04882812 C11.32488543 -0.05362362 18.36311124 0.50210294 24.6875 5.75 C28.4970049 10.48302124 28.98691565 13.15269299 28.75 19.3125 C26.64758397 19.44746251 24.5427039 19.54447307 22.4375 19.625 C21.26574219 19.68300781 20.09398437 19.74101563 18.88671875 19.80078125 C17.33404297 19.55908203 17.33404297 19.55908203 15.75 19.3125 C14.01953125 16.85546875 14.01953125 16.85546875 12.75 14.3125 C8.75595224 12.98115075 5.05904364 13.01067087 0.875 12.9375 C0.07191406 12.90011719 -0.73117187 12.86273437 -1.55859375 12.82421875 C-5.62418367 12.76393817 -7.75829248 13.01039692 -11.2890625 15.1796875 C-14.12911405 19.71698101 -13.90872281 23.56743262 -13.75 28.8125 C-13.75257813 29.74964844 -13.75515625 30.68679688 -13.7578125 31.65234375 C-13.67978262 37.1534505 -13.33210436 41.23039564 -9.25 45.3125 C-5.79961495 45.59137021 -2.33531961 45.54428779 1.125 45.5625 C2.09695313 45.583125 3.06890625 45.60375 4.0703125 45.625 C5.47023438 45.63273438 5.47023438 45.63273438 6.8984375 45.640625 C7.75614746 45.6499707 8.61385742 45.65931641 9.49755859 45.66894531 C11.78654179 45.47399853 11.78654179 45.47399853 13.49072266 44.10449219 C15.1670308 41.97512409 15.1670308 41.97512409 15.75 37.3125 C20.37 37.3125 24.99 37.3125 29.75 37.3125 C29.23041536 44.27493423 28.6806413 48.54027175 23.4375 53.5 C13.38042901 60.28267578 -2.53973551 58.99765358 -14.0546875 57.1640625 C-19.42474752 55.73292181 -22.50218359 53.29561522 -25.2890625 48.5390625 C-28.32336031 42.04509802 -28.4584657 35.58179586 -28.5 28.5625 C-28.520625 27.7065625 -28.54125 26.850625 -28.5625 25.96875 C-28.60445288 19.04652506 -27.81264392 12.52384666 -23.3828125 6.97265625 C-22.72023438 6.44542969 -22.05765625 5.91820312 -21.375 5.375 C-20.71757812 4.82972656 -20.06015625 4.28445313 -19.3828125 3.72265625 C-13.180171 -0.37835763 -7.19592714 -0.0208941 0 0 Z " fill="#3E7CAB" transform="translate(332.25,646.6875)"/>
<path d="M0 0 C22.11 0 44.22 0 67 0 C67 3.96 67 7.92 67 12 C58.09 12 49.18 12 40 12 C40 31.8 40 51.6 40 72 C36 73 36 73 26 73 C26 52.87 26 32.74 26 12 C17.42 12 8.84 12 0 12 C0 8.04 0 4.08 0 0 Z " fill="#4494C8" transform="translate(121,631)"/>
<path d="M0 0 C3.031875 0.061875 3.031875 0.061875 6.125 0.125 C6.125 4.415 6.125 8.705 6.125 13.125 C4.26294922 13.18107422 4.26294922 13.18107422 2.36328125 13.23828125 C0.72132489 13.3039595 -0.92060087 13.3704062 -2.5625 13.4375 C-3.78743164 13.47133789 -3.78743164 13.47133789 -5.03710938 13.50585938 C-9.74464104 13.71550653 -13.05661451 14.0748104 -16.875 17.125 C-18.51157754 20.39815509 -18.1180807 24.03122231 -18.19140625 27.6328125 C-18.21218735 28.47343231 -18.23296844 29.31405212 -18.25437927 30.18014526 C-18.31985439 32.87001235 -18.3787502 35.55997843 -18.4375 38.25 C-18.48068716 40.07162489 -18.52430152 41.89323971 -18.56835938 43.71484375 C-18.67553368 48.18479394 -18.77680685 52.65484386 -18.875 57.125 C-23.495 57.125 -28.115 57.125 -32.875 57.125 C-32.875 38.645 -32.875 20.165 -32.875 1.125 C-28.585 1.125 -24.295 1.125 -19.875 1.125 C-19.875 3.435 -19.875 5.745 -19.875 8.125 C-19.43929687 7.71507812 -19.00359375 7.30515625 -18.5546875 6.8828125 C-17.95914063 6.34398437 -17.36359375 5.80515625 -16.75 5.25 C-16.16992188 4.71632813 -15.58984375 4.18265625 -14.9921875 3.6328125 C-10.27783562 0.27535894 -5.65864832 -0.11548262 0 0 Z " fill="#3D7EAE" transform="translate(227.875,646.875)"/>
<path d="M0 0 C1.27617188 -0.02416992 1.27617188 -0.02416992 2.578125 -0.04882812 C7.36944683 -0.05255968 10.82379551 0.06166295 14.625 3.3125 C17.43038938 7.89975773 16.9928752 12.52395681 17 17.75 C17.02449219 18.69166016 17.04898438 19.63332031 17.07421875 20.60351562 C17.09289457 25.01412252 17.07178951 27.58347925 14.7265625 31.41015625 C10.38954167 35.33604685 5.85191781 34.60533854 0.25 34.6875 C-1.18859375 34.74357422 -1.18859375 34.74357422 -2.65625 34.80078125 C-9.73241063 34.88947964 -9.73241063 34.88947964 -12.9765625 31.9765625 C-15.57623424 27.02411522 -15.59013379 22.95220312 -15.625 17.5 C-15.645625 16.70529297 -15.66625 15.91058594 -15.6875 15.09179688 C-15.72061839 10.08677972 -15.20029409 6.62305383 -12.375 2.3125 C-8.22741407 -0.45255729 -4.87198182 -0.01828822 0 0 Z " fill="#0C141E" transform="translate(647.375,658.6875)"/>
<path d="M0 0 C4.62 0 9.24 0 14 0 C14 18.48 14 36.96 14 56 C9.38 56 4.76 56 0 56 C0 37.52 0 19.04 0 0 Z " fill="#ACADAF" transform="translate(510,648)"/>
<path d="M0 0 C4.62 0 9.24 0 14 0 C14 18.48 14 36.96 14 56 C9.38 56 4.76 56 0 56 C0 37.52 0 19.04 0 0 Z " fill="#AEAFB0" transform="translate(596,648)"/>
<path d="M0 0 C4.3718348 0.47159734 5.91855962 3.14806352 8.62109375 6.40234375 C18.88809695 20.7995266 22.53934431 36.83986759 20.6796875 54.2890625 C18.50454534 66.77917736 13.14682442 82.3991472 2.6796875 90.2890625 C0.08984375 90.62109375 0.08984375 90.62109375 -2.3203125 90.2890625 C-2.9803125 89.6290625 -3.6403125 88.9690625 -4.3203125 88.2890625 C-4.02919197 84.46290702 -1.7853801 81.9969425 0.4921875 79.0390625 C10.21984563 65.87198239 13.27926402 51.53303782 11.6796875 35.2890625 C9.90554356 24.75064751 4.29338209 13.90275709 -3.3203125 6.2890625 C-3.5078125 3.7265625 -3.5078125 3.7265625 -3.3203125 1.2890625 C-2.3203125 0.2890625 -2.3203125 0.2890625 0 0 Z " fill="#345277" transform="translate(498.3203125,395.7109375)"/>
<path d="M0 0 C2.1328125 2.52734375 2.1328125 2.52734375 4.125 5.9375 C4.47119385 6.52708496 4.8173877 7.11666992 5.17407227 7.72412109 C7.80300056 12.3283456 9.66169094 16.89009268 11 22 C11.33 22.99 11.66 23.98 12 25 C12.83206864 38.97101295 10.34017949 52.44806412 0.94140625 63.3984375 C-1 65 -1 65 -3.6875 65.3125 C-6 65 -6 65 -7 64 C-7.29657258 61.11692556 -7.29186467 59.4902193 -5.79296875 56.97265625 C-5.26316406 56.34230469 -4.73335938 55.71195312 -4.1875 55.0625 C3.06407798 45.94671918 4.08130761 36.43270179 3 25 C1.33744815 19.11553226 -1.1315388 13.94240284 -4.8125 9.0625 C-7.04847394 5.93213649 -7.56553825 4.73255245 -7 1 C-4.34616476 -0.32691762 -2.94284455 -0.48465244 0 0 Z " fill="#345276" transform="translate(489,408)"/>
<path d="M0 0 C1.11181641 0.01289062 2.22363281 0.02578125 3.36914062 0.0390625 C5.09487305 0.08933594 5.09487305 0.08933594 6.85546875 0.140625 C8.02529297 0.15867187 9.19511719 0.17671875 10.40039062 0.1953125 C13.28208655 0.2423606 16.16210672 0.30808791 19.04296875 0.390625 C19.24126076 4.56642142 19.27881122 6.02992475 16.91796875 9.640625 C12.15033969 14.20096584 7.42373163 14.6820915 0.98046875 14.703125 C-0.80037109 14.72826172 -0.80037109 14.72826172 -2.6171875 14.75390625 C-6.23906846 14.35994727 -8.13015049 13.6668147 -10.95703125 11.390625 C-11.58203125 7.953125 -11.58203125 7.953125 -10.95703125 4.390625 C-7.39417065 0.77597747 -5.0220982 -0.1030174 0 0 Z " fill="#0D1824" transform="translate(262.95703125,679.609375)"/>
<path d="M0 0 C3.21562665 0.58465939 3.55662664 1.09112313 5.4375 3.625 C9.6936419 10.3438152 10.60211887 16.64387967 9.75 24.5 C8.2509254 30.46538966 6.61983258 35.50111825 1.75 39.5 C-1 39.25 -1 39.25 -3.25 38.5 C-3.66935895 34.41125021 -3.06063109 31.83938487 -1.25 28.25 C1.08265047 23.30144865 1.68295436 18.90934117 0.75 13.5 C-0.37931949 10.99310543 -1.78161299 8.84024179 -3.25 6.5 C-3.5625 3.625 -3.5625 3.625 -3.25 1.5 C-2.25 0.5 -2.25 0.5 0 0 Z " fill="#365275" transform="translate(474.25,421.5)"/>
<path d="M0 0 C-0.77085937 0.40992188 -1.54171875 0.81984375 -2.3359375 1.2421875 C-3.33882812 1.78101563 -4.34171875 2.31984375 -5.375 2.875 C-6.87160156 3.67550781 -6.87160156 3.67550781 -8.3984375 4.4921875 C-11.05348395 5.8820138 -11.05348395 5.8820138 -13 8 C-13.24889169 10.82223357 -13.37435303 13.55167196 -13.4140625 16.37890625 C-13.43338333 17.24250259 -13.45270416 18.10609894 -13.47261047 18.99586487 C-13.53327213 21.85130603 -13.57925715 24.706784 -13.625 27.5625 C-13.6642978 29.53565449 -13.70409813 31.50879904 -13.74438477 33.48193359 C-13.93808398 43.64613424 -14.02535454 53.80668299 -13.98828125 63.97265625 C-13.98523987 64.91941727 -13.98219849 65.86617828 -13.97906494 66.84162903 C-13.96161954 71.38637676 -13.92938951 75.93039174 -13.87548828 80.47485352 C-13.86346299 82.11083879 -13.85157377 83.74682508 -13.83984375 85.3828125 C-13.82633377 86.1297084 -13.81282379 86.87660431 -13.79890442 87.64613342 C-13.79016647 89.43199268 -13.88568746 91.21778164 -14 93 C-14.99 93.99 -14.99 93.99 -16 95 C-16 65.3 -16 35.6 -16 5 C-3 -1 -3 -1 0 0 Z " fill="#398FBE" transform="translate(252,155)"/>
<path d="M0 0 C4.62 0 9.24 0 14 0 C14 3.96 14 7.92 14 12 C9.38 12 4.76 12 0 12 C0 8.04 0 4.08 0 0 Z " fill="#EFEFEF" transform="translate(510,628)"/>
<path d="M0 0 C4.62 0 9.24 0 14 0 C14 3.96 14 7.92 14 12 C9.38 12 4.76 12 0 12 C0 8.04 0 4.08 0 0 Z " fill="#E8E9E9" transform="translate(596,628)"/>
<path d="M0 0 C0.33 0 0.66 0 1 0 C1 18.48 1 36.96 1 56 C-3.62 56 -8.24 56 -13 56 C-13 46.1 -13 36.2 -13 26 C-12.67 26 -12.34 26 -12 26 C-11.67 35.24 -11.34 44.48 -11 54 C-8.03 54 -5.06 54 -2 54 C-0.87157543 36.0172339 -0.4696748 18.0092347 0 0 Z " fill="#808385" transform="translate(609,648)"/>
<path d="M0 0 C0.33 0 0.66 0 1 0 C1 12.21 1 24.42 1 37 C-3.62 37 -8.24 37 -13 37 C-13 28.75 -13 20.5 -13 12 C-12.67 12 -12.34 12 -12 12 C-11.83256252 15.45829647 -11.66618079 18.91664293 -11.5 22.375 C-11.45230469 23.35984375 -11.40460938 24.3446875 -11.35546875 25.359375 C-11.31035156 26.30039062 -11.26523437 27.24140625 -11.21875 28.2109375 C-11.17685547 29.08024902 -11.13496094 29.94956055 -11.09179688 30.84521484 C-11.03283606 32.22922588 -11 33.61473363 -11 35 C-7.7 35 -4.4 35 -1 35 C-1.01160156 33.8140625 -1.02320313 32.628125 -1.03515625 31.40625 C-1.10502901 20.88712404 -0.81024407 10.48976702 0 0 Z " fill="#808386" transform="translate(523,667)"/>
<path d="M0 0 C2.5625 0.1875 2.5625 0.1875 4.5625 2.1875 C4.828125 4.71875 4.828125 4.71875 4.8125 7.6875 C4.81765625 8.6671875 4.8228125 9.646875 4.828125 10.65625 C4.5625 13.1875 4.5625 13.1875 2.5625 15.1875 C0 15.375 0 15.375 -2.4375 15.1875 C-3.4375 14.1875 -3.4375 14.1875 -3.5703125 11.28125 C-3.56773437 10.0953125 -3.56515625 8.909375 -3.5625 7.6875 C-3.56507813 6.5015625 -3.56765625 5.315625 -3.5703125 4.09375 C-3.39516757 0.26116674 -3.39516757 0.26116674 0 0 Z " fill="#365478" transform="translate(462.4375,433.8125)"/>
<path d="M0 0 C5.57702466 3.34269617 9.84707713 7.61563409 14.375 12.25 C15.11105469 12.99507812 15.84710937 13.74015625 16.60546875 14.5078125 C18.40830047 16.33405762 20.20626978 18.16482205 22 20 C18.74061959 20 17.94280815 19.56967977 15.27734375 17.8828125 C14.57416016 17.44066406 13.87097656 16.99851563 13.14648438 16.54296875 C12.05303711 15.84107422 12.05303711 15.84107422 10.9375 15.125 C10.20466797 14.66480469 9.47183594 14.20460937 8.71679688 13.73046875 C3.29546523 10.29546523 3.29546523 10.29546523 1 8 C1.66 7.01 2.32 6.02 3 5 C2.01 4.34 1.02 3.68 0 3 C0 2.01 0 1.02 0 0 Z " fill="#4098CF" transform="translate(546,216)"/>
<path d="M0 0 C0.33 0 0.66 0 1 0 C1.33 8.91 1.66 17.82 2 27 C7.48742709 27.01415292 7.48742709 27.01415292 12 25 C12.15686249 23.44051458 12.25076639 21.87457332 12.31640625 20.30859375 C12.35830078 19.36435547 12.40019531 18.42011719 12.44335938 17.44726562 C12.50233398 15.95743164 12.50233398 15.95743164 12.5625 14.4375 C12.60568359 13.44041016 12.64886719 12.44332031 12.69335938 11.41601562 C12.79980298 8.9441585 12.90181928 6.4721969 13 4 C15.97 4 18.94 4 22 4 C22 4.33 22 4.66 22 5 C19.36 5 16.72 5 14 5 C14 12.59 14 20.18 14 28 C9.38 28 4.76 28 0 28 C0 18.76 0 9.52 0 0 Z " fill="#365272" transform="translate(370,676)"/>
<path d="M0 0 C4.62 0 9.24 0 14 0 C14.1953125 9.9609375 14.1953125 9.9609375 14 13 C13.34 13.66 12.68 14.32 12 15 C11.91666643 10.1666528 12.04738513 5.76307437 13 1 C9.7 1.33 6.4 1.66 3 2 C2.18185808 5.27256768 1.88128166 7.47993899 1.90234375 10.765625 C1.90556641 11.65507813 1.90878906 12.54453125 1.91210938 13.4609375 C1.92467773 14.84152344 1.92467773 14.84152344 1.9375 16.25 C1.94201172 17.18585937 1.94652344 18.12171875 1.95117188 19.0859375 C1.96293082 21.39069041 1.97936574 23.69531227 2 26 C1.34 26 0.68 26 0 26 C0 17.42 0 8.84 0 0 Z " fill="#4FAADB" transform="translate(370,628)"/>
<path d="M0 0 C3.60822687 3.11619594 4.85894343 6.36125451 5.265625 11.0859375 C5.23707122 17.0965084 5.10550138 22.34146504 3 28 C2.01 28 1.02 28 0 28 C-2.18777466 29.9375006 -2.18777466 29.9375006 -4 32 C-3.02440179 29.52145319 -2.03024244 27.06666581 -0.9296875 24.640625 C2.96350433 15.81605686 2.65801092 9.13691255 0 0 Z " fill="#3A7DAB" transform="translate(558,258)"/>
<path d="M0 0 C7.53516373 3.41308291 13.06348067 10.34069151 16 18 C16.12890625 20.7734375 16.12890625 20.7734375 16 23 C15.34 22.34 14.68 21.68 14 21 C13.67 23.31 13.34 25.62 13 28 C12.67 28 12.34 28 12 28 C11.92523437 27.17757813 11.85046875 26.35515625 11.7734375 25.5078125 C10.53917133 15.0286507 6.88017992 7.93866914 0 0 Z " fill="#4290C6" transform="translate(564,247)"/>
<path d="M0 0 C0.99 0.33 1.98 0.66 3 1 C2.22914063 1.40992188 1.45828125 1.81984375 0.6640625 2.2421875 C-0.33882812 2.78101563 -1.34171875 3.31984375 -2.375 3.875 C-3.87160156 4.67550781 -3.87160156 4.67550781 -5.3984375 5.4921875 C-8.05348395 6.8820138 -8.05348395 6.8820138 -10 9 C-10.37346668 12.20538403 -10.37346668 12.20538403 -10.4140625 15.9765625 C-10.43342865 16.66181 -10.4527948 17.3470575 -10.4727478 18.05307007 C-10.53256831 20.24358644 -10.57893756 22.4341553 -10.625 24.625 C-10.66317763 26.10939802 -10.70222924 27.59377384 -10.7421875 29.078125 C-10.83827084 32.71854685 -10.92229282 36.35913436 -11 40 C-11.33 40 -11.66 40 -12 40 C-12 28.78 -12 17.56 -12 6 C-8.04 4.02 -4.08 2.04 0 0 Z " fill="#4DBCF6" transform="translate(249,154)"/>
<path d="M0 0 C0.66 0.33 1.32 0.66 2 1 C0.68 2.32 -0.64 3.64 -2 5 C-2.66 4.67 -3.32 4.34 -4 4 C-2.68 2.68 -1.36 1.36 0 0 Z M-5 6 C-6.66463038 10.28642324 -9.79075837 13.08617217 -13 16.25 C-13.5465625 16.80429687 -14.093125 17.35859375 -14.65625 17.9296875 C-18.7466133 22 -18.7466133 22 -21 22 C-19.33536962 17.71357676 -16.20924163 14.91382783 -13 11.75 C-12.4534375 11.19570313 -11.906875 10.64140625 -11.34375 10.0703125 C-7.2533867 6 -7.2533867 6 -5 6 Z " fill="#325276" transform="translate(395,412)"/>
<path d="M0 0 C3.96 0 7.92 0 12 0 C12 5.94 12 11.88 12 18 C11.67 18 11.34 18 11 18 C11 12.72 11 7.44 11 2 C9.700625 2.144375 8.40125 2.28875 7.0625 2.4375 C5.96615234 2.55931641 5.96615234 2.55931641 4.84765625 2.68359375 C2.98859771 2.81886614 2.98859771 2.81886614 2 4 C1.76518307 6.18292774 1.58636677 8.37203174 1.4375 10.5625 C1.35371094 11.76003906 1.26992188 12.95757813 1.18359375 14.19140625 C1.12300781 15.11824219 1.06242188 16.04507813 1 17 C0.67 17 0.34 17 0 17 C0 11.39 0 5.78 0 0 Z " fill="#E6E6E6" transform="translate(511,648)"/>
<path d="M0 0 C0 4.29 0 8.58 0 13 C-0.66 13 -1.32 13 -2 13 C-2.33 9.37 -2.66 5.74 -3 2 C-4.93816735 2.1141866 -6.87555099 2.24173423 -8.8125 2.375 C-9.89144531 2.44460938 -10.97039062 2.51421875 -12.08203125 2.5859375 C-15.18626186 2.81195733 -15.18626186 2.81195733 -18 5 C-18.66 4.34 -19.32 3.68 -20 3 C-13.3652515 -0.70311544 -7.52496407 -0.23273085 0 0 Z " fill="#43A3DB" transform="translate(234,647)"/>
<path d="M0 0 C3.96 0 7.92 0 12 0 C12 0.66 12 1.32 12 2 C10.63875 1.9071875 10.63875 1.9071875 9.25 1.8125 C5.63754379 2.02091094 4.51836025 2.48163975 2 5 C1.34 6.32 0.68 7.64 0 9 C0 6.03 0 3.06 0 0 Z " fill="#E7E7E6" transform="translate(687,648)"/>
<path d="M0 0 C0.66 0.33 1.32 0.66 2 1 C-2.75 6.875 -2.75 6.875 -5 8 C-6.13350534 10.01669827 -6.13350534 10.01669827 -7 12 C-7.99 12 -8.98 12 -10 12 C-7.11954533 7.34695784 -3.96084779 3.78080926 0 0 Z " fill="#4DA7DB" transform="translate(410,648)"/>
<path d="M0 0 C0.33 0 0.66 0 1 0 C0.67 2.64 0.34 5.28 0 8 C-0.99 8 -1.98 8 -3 8 C-5.18777466 9.9375006 -5.18777466 9.9375006 -7 12 C-5.66749209 8.4124787 -4.169283 5.1635377 -2 2 C-1.34 2 -0.68 2 0 2 C0 1.34 0 0.68 0 0 Z " fill="#3E8BC0" transform="translate(561,278)"/>
<path d="M0 0 C0 0.33 0 0.66 0 1 C-0.85271484 1.23783203 -0.85271484 1.23783203 -1.72265625 1.48046875 C-7.3515166 3.18134308 -11.38098471 5.36375392 -16 9 C-13.04158609 1.46949187 -7.40116395 -0.13705859 0 0 Z " fill="#47ABE5" transform="translate(324,648)"/>
<path d="M0 0 C4.29 0 8.58 0 13 0 C13 0.99 13 1.98 13 3 C9.37 2.67 5.74 2.34 2 2 C1.34 3.32 0.68 4.64 0 6 C0 4.02 0 2.04 0 0 Z " fill="#9B9DA0" transform="translate(533,688)"/>
<path d="M0 0 C6.44807122 0.60830861 6.44807122 0.60830861 8.9375 2.375 C10 4 10 4 10 7 C7.07909997 5.69063102 5.24380538 4.24380538 3 2 C2.01 1.67 1.02 1.34 0 1 C0 0.67 0 0.34 0 0 Z " fill="#D4D6D6" transform="translate(574,649)"/>
<path d="M0 0 C1.65 0 3.3 0 5 0 C4.51917969 0.53109375 4.03835938 1.0621875 3.54296875 1.609375 C1.61619553 4.59465402 1.5041576 6.72350016 1.3125 10.25 C1.24675781 11.32765625 1.18101562 12.4053125 1.11328125 13.515625 C1.07589844 14.33546875 1.03851562 15.1553125 1 16 C0.67 16 0.34 16 0 16 C0 10.72 0 5.44 0 0 Z " fill="#E0E1E0" transform="translate(597,648)"/>
<path d="M0 0 C3.21524305 1.40844718 5.32183868 3.10344786 7.75 5.625 C8.67039062 6.57246094 8.67039062 6.57246094 9.609375 7.5390625 C10.29773438 8.26222656 10.29773438 8.26222656 11 9 C10.67 9.66 10.34 10.32 10 11 C9.34 11 8.68 11 8 11 C6.5625 9.35546875 6.5625 9.35546875 5 7.1875 C4.484375 6.47980469 3.96875 5.77210938 3.4375 5.04296875 C2.26681246 3.37919271 1.12846526 1.69269789 0 0 Z " fill="#367DAF" transform="translate(564,247)"/>
<path d="M0 0 C-3.96 1.98 -7.92 3.96 -12 6 C-12.66 5.34 -13.32 4.68 -14 4 C-12.23494565 3.13395466 -10.46271926 2.28251358 -8.6875 1.4375 C-7.70136719 0.96183594 -6.71523437 0.48617187 -5.69921875 -0.00390625 C-3 -1 -3 -1 0 0 Z " fill="#45AADF" transform="translate(252,155)"/>
</svg>
